<svg width="88" height="24" viewBox="0 0 88 24" fill="none" xmlns="http://www.w3.org/2000/svg">
<path d="M28 4.04102C23.5816 4.04102 20 7.62262 20 12.041C20 16.0514 22.9544 19.3634 26.804 19.9418V14.161H24.8248V12.0578H26.804V10.6586C26.804 8.34182 27.9328 7.32502 29.8584 7.32502C30.7808 7.32502 31.268 7.39302 31.4992 7.42422V9.25942H30.1856C29.368 9.25942 29.0824 10.0346 29.0824 10.9082V12.0578H31.4784L31.1536 14.161H29.0832V19.9586C32.988 19.4298 36 16.0906 36 12.041C36 7.62262 32.4184 4.04102 28 4.04102Z" fill="white"/>
<path d="M66.2222 4H53.7778C52.7956 4 52 4.79556 52 5.77778V18.2222C52 19.2044 52.7956 20 53.7778 20H66.2222C67.2044 20 68 19.2044 68 18.2222V5.77778C68 4.79556 67.2044 4 66.2222 4ZM57.3333 16.4444H55.0907V10.2222H57.3333V16.4444ZM56.1724 9.08178C55.4871 9.08178 55.0293 8.62489 55.0293 8.01511C55.0293 7.40533 55.4862 6.94844 56.248 6.94844C56.9333 6.94844 57.3911 7.40533 57.3911 8.01511C57.3911 8.62489 56.9342 9.08178 56.1724 9.08178ZM65.3333 16.4444H63.1627V13.0436C63.1627 12.1031 62.584 11.8862 62.3671 11.8862C62.1502 11.8862 61.4267 12.0311 61.4267 13.0436C61.4267 13.1884 61.4267 16.4444 61.4267 16.4444H59.184V10.2222H61.4267V11.0907C61.7156 10.584 62.2942 10.2222 63.3796 10.2222C64.4649 10.2222 65.3333 11.0907 65.3333 13.0436V16.4444Z" fill="white"/>
</svg>
