<svg width="170" height="77" viewBox="0 0 170 77" fill="none" xmlns="http://www.w3.org/2000/svg">
<path d="M126.514 16.6103H130.221V15.2447H117.301V16.6103H121.028V42.5993H117.301V43.9532H130.221V42.5993H126.514V16.6103Z" fill="white"/>
<mask id="mask0_45_159" style="mask-type:luminance" maskUnits="userSpaceOnUse" x="0" y="0" width="170" height="77">
<path d="M0.190491 76.5249H169.143V0.89093H0.190491V76.5249Z" fill="white"/>
</mask>
<g mask="url(#mask0_45_159)">
<path d="M150.027 43.9532V42.6051H146.067V16.3215C152.119 16.0195 153.153 17.315 153.929 22.8081H155.259L154.787 15.2447H131.799L131.331 22.8081H132.695C133.477 17.315 134.499 16.0195 140.562 16.3215V42.6051H136.6V43.9532H150.027Z" fill="white"/>
<path d="M114.841 16.5998V15.2444H104.252L98.0281 34.8794L92.0185 15.2444H81.4686V16.5998H85.1788V42.6062L81.1709 42.6019C77.4476 42.6923 77.3907 39.519 77.4068 38.8625C77.4578 31.8637 75.8952 29.3163 69.1883 28.2804V28.187C73.1888 27.7639 78.3026 26.6259 78.3026 21.7763C78.3026 15.8061 72.7292 15.2444 68.0284 15.2444H54.187V16.5998H57.8928V42.6019H54.187V43.9529H67.1005V42.6019H63.3946V28.8932C65.7757 28.7984 68.4588 29.4068 69.6697 30.4485C70.7888 31.3968 71.3913 34.344 71.3913 37.901C71.3913 42.2911 73.6572 43.9529 78.0049 43.9529H90.4501V42.6062H86.8245V17.0448H86.9135L95.4603 43.9529H96.912L105.513 17.0448H105.643V42.6062H101.945V43.9529H114.841V42.6062H111.141V16.5998H114.841ZM63.3946 27.5524V16.5998H67.134C70.9624 16.5998 72.3762 17.5612 72.3762 22.389C72.3762 26.2393 70.7888 27.5524 66.9181 27.5524H63.3946Z" fill="white"/>
<path d="M31.3371 13.5417H27.0506V17.0243H19.9132V24.2857H14.5441V34.9495H19.9132V42.2123H27.0506V45.6847H30.8293C39.6591 45.6847 47.4487 38.5575 47.4487 29.6533C47.4487 20.8104 40.1814 13.5417 31.3371 13.5417Z" fill="#E42A20"/>
<path d="M57.893 52.6387C57.893 52.3994 57.7646 52.2885 57.5428 52.2885H56.8571V50.9171H58.4664C59.1842 50.9171 59.4876 51.2206 59.4876 51.9384V58.1712C59.4876 59.8592 60.5542 60.8659 62.1809 60.8659C63.8062 60.8659 64.8757 59.8592 64.8757 58.1551V51.9384C64.8757 51.2206 65.1937 50.9171 65.9101 50.9171H67.5048V52.2885H66.8191C66.5958 52.2885 66.4704 52.3994 66.4704 52.6387V58.2339C66.4704 60.6879 64.7633 62.3629 62.197 62.3629C59.6146 62.3629 57.893 60.6879 57.893 58.2339V52.6387Z" fill="white"/>
<path d="M68.584 60.8006H69.2683C69.493 60.8006 69.6199 60.6722 69.6199 60.4505V50.9174H71.0702L76.076 58.0431C76.4903 58.6486 77.017 59.5736 77.017 59.5736H77.0476C77.0476 59.5736 76.9368 58.6807 76.9368 58.0431V51.9387C76.9368 51.2209 77.2388 50.9174 77.9726 50.9174H79.5673V52.2889H78.8816C78.6584 52.2889 78.5314 52.3998 78.5314 52.639V62.1721H77.0958L72.0754 55.0478C71.6611 54.4394 71.1504 53.5159 71.1504 53.5159H71.1183C71.1183 53.5159 71.2146 54.4248 71.2146 55.0478V61.1508C71.2146 61.8686 70.9097 62.1721 70.1933 62.1721H68.584V60.8006Z" fill="white"/>
<path d="M81.2969 60.8006H82.397V52.2889H81.2969V50.9174H85.0115V52.2889H83.9114V60.8006H85.0115V62.1721H81.2969V60.8006Z" fill="white"/>
<path d="M86.748 52.6387C86.6531 52.3512 86.4927 52.2885 86.2242 52.2885H86.001V50.9171H86.8924C87.689 50.9171 87.9619 51.0936 88.2157 51.8421L90.6858 58.7766C90.8944 59.3821 91.1176 60.3217 91.1176 60.3217H91.1497C91.1497 60.3217 91.3555 59.3821 91.5801 58.7766L94.0502 51.8421C94.3201 51.0936 94.5755 50.9171 95.3721 50.9171H96.265V52.2885H96.0432C95.7543 52.2885 95.6128 52.3512 95.5165 52.6387L91.977 62.1717H90.2875L86.748 52.6387Z" fill="white"/>
<path d="M98.2271 52.2881H97.1927V50.9181H103.809C104.526 50.9181 104.828 51.2202 104.828 51.938V53.3561H103.376V52.6383C103.376 52.399 103.249 52.2881 103.026 52.2881H99.8232V55.8116H103.758V57.1816H99.8232V60.4497C99.8232 60.6715 99.9502 60.7999 100.173 60.7999H103.456C103.681 60.7999 103.809 60.6715 103.809 60.4497V59.7319H105.274V61.15C105.274 61.8693 104.972 62.1713 104.254 62.1713H99.2484C98.5306 62.1713 98.2271 61.8693 98.2271 61.15V52.2881Z" fill="white"/>
<path d="M111.178 56.3219C112.389 56.3219 113.105 55.5399 113.105 54.2807C113.105 53.0202 112.389 52.2878 111.208 52.2878H109.104V56.3219H111.178ZM107.51 52.2878H106.474V50.9178H111.383C113.36 50.9178 114.748 52.1608 114.748 54.218C114.748 56.0972 113.521 57.0236 112.723 57.1973V57.2294C112.723 57.2294 113.012 57.3723 113.2 57.74L114.557 60.4333C114.717 60.7689 114.971 60.801 115.353 60.801H115.562V62.171H114.778C113.903 62.171 113.583 62.0601 113.219 61.3262L111.688 58.2988C111.401 57.7721 111.192 57.6919 110.571 57.6919H109.104V62.171H107.51V52.2878Z" fill="white"/>
<path d="M117.601 59.5572C117.601 59.5572 118.749 60.9126 120.421 60.9126C121.475 60.9126 122.353 60.2736 122.353 59.2377C122.353 56.8785 116.915 57.2447 116.915 53.7388C116.915 52.0493 118.398 50.726 120.519 50.726C121.715 50.726 123.722 51.2687 123.722 52.7977V53.7242H122.257V53.1975C122.257 52.6066 121.412 52.1762 120.519 52.1762C119.307 52.1762 118.542 52.8459 118.542 53.6906C118.542 55.971 123.962 55.4604 123.962 59.1575C123.962 60.8805 122.621 62.3629 120.392 62.3629C117.999 62.3629 116.661 60.6879 116.661 60.6879L117.601 59.5572Z" fill="white"/>
<path d="M125.634 60.8006H126.734V52.2889H125.634V50.9174H129.35V52.2889H128.248V60.8006H129.35V62.1721H125.634V60.8006Z" fill="white"/>
<path d="M134.419 52.2881H132.155C131.931 52.2881 131.804 52.399 131.804 52.6383V53.3561H130.386V51.8738C130.386 51.1574 130.624 50.9181 131.342 50.9181H139.091C139.806 50.9181 140.046 51.1574 140.046 51.8738V53.3561H138.628V52.6383C138.628 52.399 138.501 52.2881 138.276 52.2881H136.012V62.1713H134.419V52.2881Z" fill="white"/>
<path d="M144.591 57.2622L141.738 52.6868C141.53 52.3512 141.386 52.2885 141.05 52.2885H140.732V50.9171H141.465C142.231 50.9171 142.533 51.0294 142.981 51.7793L144.686 54.617C145.054 55.2371 145.372 55.8762 145.372 55.8762H145.404C145.404 55.8762 145.706 55.2371 146.088 54.617L147.781 51.7793C148.224 51.0294 148.544 50.9171 149.292 50.9171H150.026V52.2885H149.721C149.388 52.2885 149.229 52.3512 149.022 52.6868L146.183 57.2622V62.1717H144.591V57.2622Z" fill="white"/>
</g>
</svg>
