<svg width="24" height="24" viewBox="0 0 24 24" fill="none" xmlns="http://www.w3.org/2000/svg">
<path d="M12 4.04126C7.5816 4.04126 4 7.62286 4 12.0413C4 16.0517 6.9544 19.3637 10.804 19.9421V14.1613H8.8248V12.0581H10.804V10.6589C10.804 8.34206 11.9328 7.32526 13.8584 7.32526C14.7808 7.32526 15.268 7.39326 15.4992 7.42446V9.25966H14.1856C13.368 9.25966 13.0824 10.0349 13.0824 10.9085V12.0581H15.4784L15.1536 14.1613H13.0832V19.9589C16.988 19.4301 20 16.0909 20 12.0413C20 7.62286 16.4184 4.04126 12 4.04126Z" fill="url(#paint0_linear_55_799)"/>
<defs>
<linearGradient id="paint0_linear_55_799" x1="3.7127" y1="21.3873" x2="25.265" y2="12.2908" gradientUnits="userSpaceOnUse">
<stop stop-color="#ED783A"/>
<stop offset="1" stop-color="#FBE9D8"/>
</linearGradient>
</defs>
</svg>
